<?xml version="1.0" encoding="UTF-8"?>
<svg width="500" height="500" viewBox="0 0 500 500" xmlns="http://www.w3.org/2000/svg">
  <!-- Background grid -->
  <rect x="70" y="70" width="360" height="360" fill="#f5f7fa" stroke="#c0d0e0" stroke-width="2" rx="40" ry="40"/>
  <g stroke="#c0d0e0" stroke-width="1">
    <!-- Vertical grid lines -->
    <line x1="130" y1="70" x2="130" y2="430"/>
    <line x1="190" y1="70" x2="190" y2="430"/>
    <line x1="250" y1="70" x2="250" y2="430"/>
    <line x1="310" y1="70" x2="310" y2="430"/>
    <line x1="370" y1="70" x2="370" y2="430"/>
    <!-- Horizontal grid lines -->
    <line x1="70" y1="130" x2="430" y2="130"/>
    <line x1="70" y1="190" x2="430" y2="190"/>
    <line x1="70" y1="250" x2="430" y2="250"/>
    <line x1="70" y1="310" x2="430" y2="310"/>
    <line x1="70" y1="370" x2="430" y2="370"/>
  </g>
  
  <!-- I-beam -->
  <path d="M120,150 L230,150 L230,180 L190,180 L190,320 L230,320 L230,350 L120,350 L120,320 L160,320 L160,180 L120,180 Z" fill="#2c3e50"/>
  
  <!-- Calculator -->
  <rect x="230" y="170" width="160" height="200" fill="#5d7b99" rx="10" ry="10"/>
  
  <!-- Calculator screen -->
  <rect x="250" y="190" width="120" height="40" fill="#f5f7fa" rx="5" ry="5"/>
  
  <!-- Calculator buttons -->
  <g fill="#f5f7fa">
    <rect x="250" y="250" width="25" height="25" rx="3" ry="3"/>
    <rect x="290" y="250" width="25" height="25" rx="3" ry="3"/>
    <rect x="330" y="250" width="25" height="25" rx="3" ry="3"/>
    
    <rect x="250" y="290" width="25" height="25" rx="3" ry="3"/>
    <rect x="290" y="290" width="25" height="25" rx="3" ry="3"/>
    <rect x="330" y="290" width="25" height="25" rx="3" ry="3"/>
    
    <rect x="250" y="330" width="25" height="25" rx="3" ry="3"/>
    <rect x="290" y="330" width="25" height="25" rx="3" ry="3"/>
    <rect x="330" y="330" width="25" height="25" rx="3" ry="3"/>
  </g>
  
  <!-- Ruler marks on side of calculator -->
  <g stroke="#f5f7fa" stroke-width="2">
    <line x1="370" y1="200" x2="380" y2="200"/>
    <line x1="370" y1="230" x2="380" y2="230"/>
    <line x1="370" y1="260" x2="380" y2="260"/>
    <line x1="370" y1="290" x2="380" y2="290"/>
    <line x1="370" y1="320" x2="380" y2="320"/>
    <line x1="370" y1="350" x2="380" y2="350"/>
  </g>
</svg>
